<svg width="90" height="90" viewBox="0 0 90 90" fill="none" xmlns="http://www.w3.org/2000/svg">
<path d="M33.8906 4.66406V39.0304C33.8906 54.4999 46.4757 67.085 61.945 67.085C77.4145 67.085 89.9996 54.4999 89.9996 39.0304V4.66406H33.8906ZM55.5011 24.1433C55.5011 27.7774 52.5444 30.7341 48.9103 30.7341C45.2763 30.7341 42.3196 27.7774 42.3196 24.1433C42.3196 20.509 45.2763 17.5526 48.9103 17.5526C52.5444 17.5526 55.5011 20.509 55.5011 24.1433ZM68.3894 24.1433C68.3894 20.509 71.3461 17.5526 74.9801 17.5526C78.6142 17.5526 81.5709 20.5093 81.5709 24.1433C81.5709 27.7774 78.6142 30.7341 74.9801 30.7341C71.3461 30.7341 68.3894 27.7774 68.3894 24.1433ZM54.0217 42.3188C54.95 44.5081 58.2558 46.2294 61.9452 46.2294C65.6347 46.2294 68.9408 44.5081 69.8691 42.3188H78.0244C77.6546 45.5334 75.8469 48.5462 72.9382 50.7276C69.9557 52.9646 66.0517 54.1968 61.9452 54.1968C57.8393 54.1968 53.9351 52.9649 50.9525 50.7276C48.0435 48.5459 46.2359 45.5334 45.8661 42.3188H54.0217Z" fill="white"/>
<path d="M43.5876 70.0124L43.297 69.8395H35.978C35.0499 67.6502 31.7438 65.9289 28.0546 65.9289C24.3652 65.9289 21.0591 67.6502 20.1308 69.8395H11.9757C12.3455 66.6249 14.1532 63.6121 17.0619 61.4307C20.0449 59.1934 23.9489 57.9615 28.0549 57.9615C28.373 57.9615 28.7138 57.9716 29.1266 57.9932L31.3221 58.1086L30.272 56.1772C27.427 50.9436 25.9231 45.0144 25.9231 39.0311V22.9141H0V57.2804C0 72.7499 12.5851 85.335 28.0546 85.335C36.6066 85.335 44.5966 81.4719 49.9768 74.7362L51.038 73.4071L49.4437 72.8151C47.4232 72.0649 45.4531 71.1221 43.5876 70.0124ZM15.0197 35.8023C18.654 35.8023 21.6105 38.759 21.6105 42.3931C21.6105 46.0274 18.6538 48.9838 15.0197 48.9838C11.3857 48.9838 8.4292 46.0271 8.4292 42.3931C8.4292 38.759 11.3857 35.8023 15.0197 35.8023Z" fill="white"/>
</svg>
