<svg width="123" height="123" viewBox="0 0 123 123" fill="none" xmlns="http://www.w3.org/2000/svg">
<path d="M46.0549 70.3616C34.0806 70.3616 10.2344 76.3487 10.2344 88.2718V97.227H81.8754V88.2718C81.8754 76.3487 58.0292 70.3616 46.0549 70.3616ZM22.2087 86.9925C26.5071 84.0245 36.8951 80.596 46.0549 80.596C55.2147 80.596 65.6026 84.0245 69.9011 86.9925H22.2087ZM46.0549 61.4064C55.9311 61.4064 63.9651 53.3724 63.9651 43.4962C63.9651 33.62 55.9311 25.5859 46.0549 25.5859C36.1787 25.5859 28.1446 33.62 28.1446 43.4962C28.1446 53.3724 36.1787 61.4064 46.0549 61.4064ZM46.0549 35.8204C50.3022 35.8204 53.7307 39.2489 53.7307 43.4962C53.7307 47.7435 50.3022 51.172 46.0549 51.172C41.8076 51.172 38.3791 47.7435 38.3791 43.4962C38.3791 39.2489 41.8076 35.8204 46.0549 35.8204ZM82.0801 70.6686C88.0161 74.9671 92.1098 80.6983 92.1098 88.2718V97.227H112.579V88.2718C112.579 77.9351 94.6684 72.0503 82.0801 70.6686ZM76.7582 61.4064C86.6344 61.4064 94.6684 53.3724 94.6684 43.4962C94.6684 33.62 86.6344 25.5859 76.7582 25.5859C73.9949 25.5859 71.4363 26.2512 69.0824 27.377C72.3062 31.9313 74.1996 37.5091 74.1996 43.4962C74.1996 49.4833 72.3062 55.0611 69.0824 59.6154C71.4363 60.7412 73.9949 61.4064 76.7582 61.4064Z" fill="white"/>
</svg>
