<svg width="24" height="24" viewBox="0 0 24 24" fill="none" xmlns="http://www.w3.org/2000/svg">
<path d="M12 24C11.0312 24 10.0977 23.875 9.19922 23.625C8.30859 23.375 7.47266 23.0234 6.69141 22.5703C5.91797 22.1094 5.21094 21.5625 4.57031 20.9297C3.9375 20.2891 3.39062 19.582 2.92969 18.8086C2.47656 18.0273 2.125 17.1914 1.875 16.3008C1.625 15.4023 1.5 14.4688 1.5 13.5C1.5 12.5312 1.625 11.6016 1.875 10.7109C2.125 9.8125 2.47656 8.97656 2.92969 8.20312C3.39062 7.42187 3.9375 6.71484 4.57031 6.08203C5.21094 5.44141 5.91797 4.89453 6.69141 4.44141C7.47266 3.98047 8.30859 3.625 9.19922 3.375C10.0977 3.125 11.0312 3 12 3C12.9688 3 13.8984 3.125 14.7891 3.375C15.6875 3.625 16.5234 3.98047 17.2969 4.44141C18.0781 4.89453 18.7852 5.44141 19.418 6.08203C20.0586 6.71484 20.6055 7.42187 21.0586 8.20312C21.5195 8.97656 21.875 9.8125 22.125 10.7109C22.375 11.6016 22.5 12.5312 22.5 13.5C22.5 14.4688 22.375 15.4023 22.125 16.3008C21.875 17.1914 21.5195 18.0273 21.0586 18.8086C20.6055 19.582 20.0586 20.2891 19.418 20.9297C18.7852 21.5625 18.0781 22.1094 17.2969 22.5703C16.5234 23.0234 15.6875 23.375 14.7891 23.625C13.8984 23.875 12.9688 24 12 24ZM12 4.5C10.7578 4.5 9.58984 4.73828 8.49609 5.21484C7.41016 5.68359 6.45703 6.32812 5.63672 7.14844C4.82422 7.96094 4.17969 8.91406 3.70312 10.0078C3.23438 11.0938 3 12.2578 3 13.5C3 14.7422 3.23438 15.9102 3.70312 17.0039C4.17969 18.0898 4.82422 19.043 5.63672 19.8633C6.45703 20.6758 7.41016 21.3203 8.49609 21.7969C9.58984 22.2656 10.7578 22.5 12 22.5C13.2422 22.5 14.4062 22.2656 15.4922 21.7969C16.5859 21.3203 17.5391 20.6758 18.3516 19.8633C19.1719 19.043 19.8164 18.0898 20.2852 17.0039C20.7617 15.9102 21 14.7422 21 13.5C21 12.2578 20.7617 11.0938 20.2852 10.0078C19.8164 8.91406 19.1719 7.96094 18.3516 7.14844C17.5391 6.32812 16.5859 5.68359 15.4922 5.21484C14.4062 4.73828 13.2422 4.5 12 4.5ZM12 13.5V7.5H10.5V15H16.5V13.5H12Z" fill="black"/>
</svg>
