<svg width="49" height="49" viewBox="0 0 49 49" fill="none" xmlns="http://www.w3.org/2000/svg">
<path d="M24.3206 15.8193L27.2392 22.7104L29.6713 22.913L34.6775 23.3387L29.0227 28.2435L29.57 30.6351L30.705 35.5196L26.4082 32.9254L24.3206 31.6282L22.233 32.8848L17.9362 35.4791L19.0712 30.5946L19.6185 28.2029L13.9637 23.2981L18.9699 22.8725L21.402 22.6698L22.3546 20.4201L24.3206 15.8193ZM24.3206 5.42188L18.6253 18.8595L4.05273 20.0958L15.119 29.6825L11.7951 43.9308L24.3206 36.3709L36.8461 43.9308L33.5222 29.6825L44.5885 20.0958L30.0159 18.8595L24.3206 5.42188Z" fill="#38782E"/>
</svg>
