<svg width="60" height="60" viewBox="0 0 60 60" fill="none" xmlns="http://www.w3.org/2000/svg">
<g filter="url(#filter0_d_1356_35971)">
<circle cx="28" cy="26" r="26" fill="white"/>
<circle cx="28" cy="26" r="24.5" stroke="black" stroke-width="3"/>
</g>
<path d="M28.3171 15.0636C30.1482 15.0636 31.6463 16.5618 31.6463 18.3929C31.6463 20.224 30.1482 21.7222 28.3171 21.7222C26.486 21.7222 24.9878 20.224 24.9878 18.3929C24.9878 16.5618 26.486 15.0636 28.3171 15.0636ZM28.3171 31.71C32.8116 31.71 37.972 33.8574 38.3049 35.0393H18.3293C18.7121 33.8407 23.8392 31.71 28.3171 31.71ZM28.3171 11.7344C24.6382 11.7344 21.6585 14.7141 21.6585 18.3929C21.6585 22.0718 24.6382 25.0514 28.3171 25.0514C31.9959 25.0514 34.9756 22.0718 34.9756 18.3929C34.9756 14.7141 31.9959 11.7344 28.3171 11.7344ZM28.3171 28.3807C23.8725 28.3807 15 30.6113 15 35.0393V38.3685H41.6341V35.0393C41.6341 30.6113 32.7616 28.3807 28.3171 28.3807Z" fill="black"/>
<defs>
<filter id="filter0_d_1356_35971" x="0" y="0" width="60" height="60" filterUnits="userSpaceOnUse" color-interpolation-filters="sRGB">
<feFlood flood-opacity="0" result="BackgroundImageFix"/>
<feColorMatrix in="SourceAlpha" type="matrix" values="0 0 0 0 0 0 0 0 0 0 0 0 0 0 0 0 0 0 127 0" result="hardAlpha"/>
<feOffset dx="2" dy="4"/>
<feGaussianBlur stdDeviation="2"/>
<feComposite in2="hardAlpha" operator="out"/>
<feColorMatrix type="matrix" values="0 0 0 0 0 0 0 0 0 0 0 0 0 0 0 0 0 0 0.25 0"/>
<feBlend mode="normal" in2="BackgroundImageFix" result="effect1_dropShadow_1356_35971"/>
<feBlend mode="normal" in="SourceGraphic" in2="effect1_dropShadow_1356_35971" result="shape"/>
</filter>
</defs>
</svg>
