<svg width="19" height="27" viewBox="0 0 19 27" fill="none" xmlns="http://www.w3.org/2000/svg">
<path d="M15.942 11.6085C15.77 11.6085 15.5968 11.6293 15.4271 11.6704C15.2829 11.7052 15.145 11.7551 15.0152 11.8179V11.2832C15.0152 10.1112 14.0617 9.15765 12.8897 9.15765C12.7177 9.15765 12.5445 9.17842 12.3748 9.2195C12.215 9.25824 12.063 9.31518 11.9212 9.38823C11.7247 8.41763 10.8654 7.68457 9.83782 7.68457C9.66583 7.68457 9.49267 7.70534 9.323 7.74641C9.17877 7.78119 9.04084 7.83113 8.91109 7.89391V2.12557C8.91109 0.953574 7.95752 0 6.78552 0C6.61353 0 6.44036 0.0207707 6.2707 0.0618471C5.3225 0.291019 4.66018 1.16149 4.66018 2.1781V2.40167C4.36613 2.09152 4.00509 1.81054 3.58945 1.58903C2.99691 1.27351 2.35328 1.09988 1.77753 1.09988C1.02374 1.09988 0.434009 1.39626 0.15859 1.91318C-0.100926 2.4007 -0.0397782 3.02053 0.326154 3.61403C0.540623 3.96199 0.853812 4.28519 1.22793 4.56384C0.244244 5.28686 -0.217158 6.30227 0.159766 7.09172C0.428381 7.65486 1.05264 7.97761 1.87251 7.97761C2.41977 7.97761 3.00812 7.83502 3.57288 7.56547C3.98969 7.36664 4.35606 7.10735 4.66016 6.81771V11.7513C4.22982 11.1921 3.55675 10.8422 2.80577 10.8422C2.68301 10.8422 2.55886 10.852 2.43703 10.8717C1.8249 10.965 1.27973 11.2959 0.909858 11.8016C0.53926 12.3088 0.389202 12.9305 0.487684 13.5515C1.26555 18.0979 1.44753 19.1387 1.50566 19.4234L1.50333 19.4236C2.33413 23.5478 5.75262 26.428 9.8161 26.428C10.084 26.428 10.3564 26.4154 10.6262 26.39C14.7985 26.0009 18.0667 22.3209 18.0667 18.0133V13.7336C18.0667 12.5619 17.1131 11.6083 15.9416 11.6083L15.942 11.6085ZM1.20791 3.07172C1.04221 2.80334 0.992036 2.55247 1.07302 2.40032C1.16124 2.2344 1.42471 2.13567 1.77758 2.13567C2.18669 2.13567 2.65719 2.26613 3.1027 2.50347C3.57202 2.75295 3.96761 3.10139 4.18765 3.45818C4.26723 3.5877 4.31881 3.71209 4.34331 3.82411C4.12978 3.7632 3.895 3.72819 3.63804 3.72819C3.19369 3.72819 2.723 3.82644 2.25903 4.00614C1.80534 3.7583 1.42261 3.42037 1.20789 3.07168L1.20791 3.07172ZM4.25228 5.72543C4.01704 6.07269 3.60699 6.40317 3.12671 6.63211C2.7064 6.83258 2.2609 6.94319 1.87208 6.94319C1.47931 6.94319 1.1815 6.82978 1.0938 6.6461C0.942335 6.32871 1.36918 5.55882 2.38295 5.0743C2.8035 4.87383 3.24924 4.76321 3.63782 4.76321C4.03059 4.76321 4.32858 4.87734 4.41634 5.06054C4.49102 5.21597 4.42964 5.46497 4.25228 5.72543L4.25228 5.72543ZM5.6957 2.17837C5.6957 1.66915 6.01916 1.18818 6.51437 1.06869C6.60632 1.04628 6.69733 1.03602 6.78579 1.03602C7.38741 1.03602 7.87587 1.52447 7.87587 2.1261V3.32284H5.69594L5.6957 2.17837ZM5.6957 4.35783H7.87563V5.27825H5.6957V4.35783ZM17.0315 18.0135C17.0315 21.7534 14.2537 25.0119 10.5302 25.3608C10.29 25.3832 10.0518 25.3942 9.81654 25.3942C6.19151 25.3942 3.23514 22.7776 2.51821 19.2203C2.49651 19.1549 1.51027 13.3901 1.51027 13.3901C1.39686 12.675 1.8853 12.0036 2.60036 11.8946C2.6692 11.8837 2.73829 11.8783 2.8062 11.8783C3.43656 11.8783 3.99361 12.3387 4.09607 12.9803L4.6361 16.44C4.67648 16.6996 4.90005 16.8909 5.16306 16.8909C5.45758 16.8909 5.69633 16.652 5.69633 16.3577L5.69609 6.31351H7.87603V12.7497C7.87603 12.9906 8.07113 13.1857 8.31197 13.1857C8.55282 13.1857 8.74792 12.9906 8.74792 12.7497V9.86314C8.74792 9.35391 9.07138 8.87294 9.56659 8.75345C9.65854 8.73105 9.74956 8.72078 9.83801 8.72078C10.4396 8.72078 10.9281 9.209 10.9281 9.81087V13.6224C10.9281 13.8632 11.1232 14.0583 11.364 14.0583C11.6049 14.0583 11.8 13.8632 11.8 13.6224V11.3369C11.8 10.8277 12.1234 10.3467 12.6187 10.2272C12.7106 10.2048 12.8016 10.1946 12.8901 10.1946C13.4917 10.1946 13.9802 10.6828 13.9802 11.2846V14.4947C13.9802 14.7355 14.1753 14.9306 14.4161 14.9306C14.657 14.9306 14.8521 14.7355 14.8521 14.4947V13.788C14.8521 13.2788 15.1755 12.7978 15.6707 12.6783C15.7627 12.6559 15.8537 12.6457 15.9421 12.6457C16.5438 12.6457 17.0322 13.1339 17.0322 13.7358L17.0315 18.0135Z" fill="black"/>
</svg>
