<svg width="80" height="74" viewBox="0 0 80 74" fill="none" xmlns="http://www.w3.org/2000/svg">
<g clip-path="url(#clip0_1344_17876)">
<path fill-rule="evenodd" clip-rule="evenodd" d="M37.8101 25.8025C48.4068 24.0789 60.4961 40.0473 63.6672 48.7519C65.6152 54.1001 68.0204 63.883 62.9701 68.1366C57.1115 73.0706 48.8051 67.1815 42.9084 67.041C35.6466 66.8679 32.7326 72.7634 22.7642 70.1102C7.82243 66.133 18.382 44.1994 23.7437 36.5613C26.6477 32.4238 32.6847 26.6361 37.8101 25.8025ZM25.6863 72.4218H29.6775C31.4825 71.7938 33.0712 71.5782 34.9369 70.8623C42.6115 67.9173 41.6945 67.9426 50.0633 70.3721C76.5514 78.0599 70.0138 44.0145 51.2329 29.447C45.4005 24.9226 39.7047 21.9042 32.5498 26.1341C22.4075 32.1293 13.9391 47.8956 13.682 58.6155C13.3733 71.4486 20.1834 70.5624 25.6872 72.4218H25.6863Z" fill="white" stroke="white" stroke-width="4.00026" stroke-miterlimit="22.9256"/>
<path fill-rule="evenodd" clip-rule="evenodd" d="M48.7365 3.43581C57.7598 -0.0982219 67.4911 24.1135 56.4807 26.3499C51.4956 27.3621 45.6894 22.8295 44.0293 18.3884C42.436 14.1285 44.184 5.21823 48.7365 3.43491V3.43581ZM43.3757 7.49361C38.31 18.3503 46.3249 27.4047 54.424 28.0182C63.0754 28.6733 66.3215 17.5538 58.2251 6.09812C53.8193 -0.135375 46.9432 -0.152591 43.3757 7.49361Z" fill="white" stroke="white" stroke-width="4.00026" stroke-miterlimit="22.9256"/>
<path fill-rule="evenodd" clip-rule="evenodd" d="M27.1631 3.3226C35.5818 1.33901 40.5986 22.9265 25.3897 26.3246C12.5228 29.1999 16.6452 5.80005 27.1631 3.3226ZM20.3639 6.24588C13.9422 13.7888 13.6317 28.4496 23.9667 28.0762C31.7363 27.7953 40.547 19.0246 35.1898 7.35955C31.5806 -0.499596 25.3562 0.3821 20.3639 6.24588Z" fill="white" stroke="white" stroke-width="4.00026" stroke-miterlimit="22.9256"/>
<path fill-rule="evenodd" clip-rule="evenodd" d="M16.8265 36.1859C14.8667 48.8903 3.17834 49.9243 3.14122 36.8284C3.09324 19.8995 18.159 27.5484 16.8265 36.1859ZM4.44295 45.5303C10.7298 52.2205 17.4439 43.5123 18.3736 36.3527C19.4689 27.9199 9.07593 21.8142 4.25194 27.2965C0.68985 31.3452 0.610189 41.4526 4.44295 45.5303Z" fill="white" stroke="white" stroke-width="4.00026" stroke-miterlimit="22.9256"/>
<path fill-rule="evenodd" clip-rule="evenodd" d="M63.1703 34.4106C65.1301 47.115 76.8185 48.1489 76.8556 35.053C76.9036 18.1241 61.8378 25.773 63.1703 34.4106ZM75.5539 43.7549C69.267 50.4451 62.5529 41.7369 61.6232 34.5773C60.5279 26.1445 70.9209 20.0388 75.7449 25.5211C79.307 29.5698 79.3866 39.6772 75.5539 43.7549Z" fill="white" stroke="white" stroke-width="4.00026" stroke-miterlimit="22.9256"/>
</g>
<defs>
<clipPath id="clip0_1344_17876">
<rect width="80" height="74" fill="white"/>
</clipPath>
</defs>
</svg>
