<svg width="115" height="113" viewBox="0 0 115 113" fill="none" xmlns="http://www.w3.org/2000/svg">
<path d="M90.846 23.4893C89.8952 20.7231 87.2332 18.7539 84.0958 18.7539H31.8057C28.6683 18.7539 26.0538 20.7231 25.0555 23.4893L15.168 51.5736V89.0818C15.168 91.6605 17.3071 93.7703 19.9216 93.7703H24.6753C27.2898 93.7703 29.4289 91.6605 29.4289 89.0818V84.3933H86.4726V89.0818C86.4726 91.6605 88.6118 93.7703 91.2263 93.7703H95.9799C98.5944 93.7703 100.734 91.6605 100.734 89.0818V51.5736L90.846 23.4893ZM33.4695 28.131H82.3845L87.3283 42.1965H28.5257L33.4695 28.131ZM91.2263 75.0162H24.6753V51.5736H91.2263V75.0162Z" fill="white"/>
<path d="M36.5594 70.3277C40.4974 70.3277 43.6898 67.179 43.6898 63.2949C43.6898 59.4108 40.4974 56.2621 36.5594 56.2621C32.6213 56.2621 29.4289 59.4108 29.4289 63.2949C29.4289 67.179 32.6213 70.3277 36.5594 70.3277Z" fill="white"/>
<path d="M79.3422 70.3277C83.2802 70.3277 86.4726 67.179 86.4726 63.2949C86.4726 59.4108 83.2802 56.2621 79.3422 56.2621C75.4041 56.2621 72.2117 59.4108 72.2117 63.2949C72.2117 67.179 75.4041 70.3277 79.3422 70.3277Z" fill="white"/>
</svg>
