<svg width="91" height="90" viewBox="0 0 91 90" fill="none" xmlns="http://www.w3.org/2000/svg">
<path d="M11.75 22.5H79.25V15H11.75C7.625 15 4.25 18.375 4.25 22.5V67.5C4.25 71.625 7.625 75 11.75 75H26.75V67.5H11.75V22.5ZM49.25 45H34.25V51.675C31.9625 53.7375 30.5 56.6625 30.5 60C30.5 63.3375 31.9625 66.2625 34.25 68.325V75H49.25V68.325C51.5375 66.2625 53 63.3 53 60C53 56.7 51.5375 53.7375 49.25 51.675V45ZM41.75 65.625C38.6375 65.625 36.125 63.1125 36.125 60C36.125 56.8875 38.6375 54.375 41.75 54.375C44.8625 54.375 47.375 56.8875 47.375 60C47.375 63.1125 44.8625 65.625 41.75 65.625ZM83 30H60.5C58.625 30 56.75 31.875 56.75 33.75V71.25C56.75 73.125 58.625 75 60.5 75H83C84.875 75 86.75 73.125 86.75 71.25V33.75C86.75 31.875 84.875 30 83 30ZM79.25 67.5H64.25V37.5H79.25V67.5Z" fill="white"/>
</svg>
