<?xml version="1.0" encoding="UTF-8"?>
<!DOCTYPE svg PUBLIC "-//W3C//DTD SVG 1.1//EN" "http://www.w3.org/Graphics/SVG/1.1/DTD/svg11.dtd">
<!-- Creator: CorelDRAW 2021 (64-Bit Keine kommerzielle Nutzung) -->
<svg xmlns="http://www.w3.org/2000/svg" xml:space="preserve" width="68.4161mm" height="27.7605mm" version="1.1" style="shape-rendering:geometricPrecision; text-rendering:geometricPrecision; image-rendering:optimizeQuality; fill-rule:evenodd; clip-rule:evenodd"
viewBox="0 0 6517.52 2644.55"
 xmlns:xlink="http://www.w3.org/1999/xlink"
 xmlns:xodm="http://www.corel.com/coreldraw/odm/2003">
 <defs>
  <style type="text/css">
   <![CDATA[
    .fil10 {fill:none}
    .fil2 {fill:none;fill-rule:nonzero}
    .fil7 {fill:#F0BF29;fill-rule:nonzero}
    .fil8 {fill:#755436;fill-rule:nonzero}
    .fil0 {fill:#38782E;fill-rule:nonzero}
    .fil9 {fill:#FFFF99;fill-rule:nonzero}
    .fil1 {fill:#38782E;fill-opacity:0.600000}
    .fil5 {fill:#9AB646;fill-rule:nonzero;fill-opacity:0.800000}
    .fil4 {fill:#1BB4D4;fill-rule:nonzero;fill-opacity:0.800000}
    .fil6 {fill:#6A3D8B;fill-rule:nonzero;fill-opacity:0.800000}
    .fil3 {fill:#CE3A8C;fill-rule:nonzero;fill-opacity:0.901961}
   ]]>
  </style>
 </defs>
 <g id="Ebene_x0020_1">
  <metadata id="CorelCorpID_0Corel-Layer"/>
  <path class="fil0" d="M3040.89 1510.52c-140.98,0 -250.34,-37.48 -328.34,-112.43 -77.75,-74.94 -116.75,-181.76 -116.75,-320.18 0,-143.02 35.94,-252.64 108.34,-329.11 72.14,-76.48 175.13,-114.72 308.97,-114.72 127.46,0 225.86,33.14 295.46,99.67 69.34,66.54 104.01,162.39 104.01,287.3l0 130.01 -521.83 0c2.04,47.16 19.38,84.37 52,111.14 32.38,26.77 76.99,40.28 133.07,40.28 51.24,0 98.4,-4.84 141.48,-14.53 43.08,-9.69 89.73,-26.25 139.95,-49.71l0 210.31c-45.63,23.2 -93.04,39.52 -141.73,48.43 -48.7,8.93 -107.08,13.52 -174.63,13.52zm-17.34 -677.6c-34.16,0 -62.97,10.96 -86.17,32.63 -23.2,21.67 -36.7,55.58 -40.53,101.97l250.6 0c-1.02,-40.78 -12.5,-73.41 -34.68,-97.88 -22.18,-24.47 -51.75,-36.71 -89.22,-36.71z"/>
  <polygon id="_1" class="fil0" points="3869.89,1495.22 3577.75,1495.22 3577.75,332.76 3869.89,332.76 "/>
  <path id="_2" class="fil0" d="M4365.73 1495.22l-292.14 0 0 -845.84 292.14 0 0 845.84zm-299.54 -1056.92c0,-43.84 12.23,-76.48 36.45,-97.89 24.47,-21.41 63.99,-32.11 118.03,-32.11 54.3,0 94.07,10.96 118.8,32.88 24.98,21.92 37.47,54.3 37.47,97.12 0,85.66 -52,128.48 -156.27,128.48 -102.99,0 -154.48,-42.82 -154.48,-128.48z"/>
  <path id="_3" class="fil0" d="M5222.79 1235.2c0,90.75 -30.85,159.33 -92.54,205.72 -61.69,46.39 -150.41,69.6 -265.89,69.6 -62.71,0 -117.27,-3.32 -163.4,-10.2 -46.4,-6.63 -93.56,-18.86 -142,-36.96l0 -234.02c45.37,19.88 95.09,36.2 148.88,49.2 54.04,13 102.23,19.38 144.54,19.38 63.23,0 94.83,-14.54 94.83,-43.34 0,-14.78 -8.93,-28.29 -26.51,-39.76 -17.84,-11.73 -69.08,-34.68 -154.23,-68.32 -77.5,-31.87 -131.8,-68.07 -162.64,-108.6 -30.85,-40.53 -46.39,-92.02 -46.39,-154.23 0,-78.77 30.59,-139.95 91.26,-183.8 60.67,-43.84 146.58,-65.77 257.47,-65.77 55.83,0 108.09,6.12 157.29,18.36 48.95,12.23 99.68,30.08 152.45,53.28l-79.03 188.39c-38.74,-17.34 -79.79,-32.12 -123.13,-44.36 -43.34,-12.23 -78.52,-18.35 -106.05,-18.35 -47.67,0 -71.64,11.72 -71.64,35.17 0,14.28 8.41,26.77 24.99,36.97 16.82,10.19 65.01,30.85 144.54,62.2 59.14,24.47 103.25,48.18 132.3,71.64 29.32,23.45 50.74,50.98 64.25,82.59 13.77,31.36 20.65,69.85 20.65,115.23z"/>
  <path id="_4" class="fil0" d="M5793.57 1510.52c-140.98,0 -250.34,-37.48 -328.34,-112.43 -77.75,-74.94 -116.75,-181.76 -116.75,-320.18 0,-143.02 35.94,-252.64 108.34,-329.11 72.14,-76.48 175.13,-114.72 308.97,-114.72 127.46,0 225.86,33.14 295.46,99.67 69.34,66.54 104.01,162.39 104.01,287.3l0 130.01 -521.83 0c2.04,47.16 19.38,84.37 52,111.14 32.38,26.77 76.99,40.28 133.07,40.28 51.24,0 98.4,-4.84 141.48,-14.53 43.08,-9.69 89.73,-26.25 139.95,-49.71l0 210.31c-45.63,23.2 -93.04,39.52 -141.73,48.43 -48.7,8.93 -107.08,13.52 -174.63,13.52zm-17.34 -677.6c-34.16,0 -62.97,10.96 -86.17,32.63 -23.2,21.67 -36.7,55.58 -40.53,101.97l250.6 0c-1.02,-40.78 -12.5,-73.41 -34.68,-97.88 -22.18,-24.47 -51.75,-36.71 -89.22,-36.71z"/>
  <path class="fil0" d="M3836.62 1931.15c0,59.02 -17.38,104.5 -52.13,136.67 -34.88,32.16 -84.3,48.18 -148.26,48.18l-40.17 0 0 175.25 -142.59 0 0 -527.96 182.76 0c66.67,0 116.71,14.54 150.23,43.62 33.4,29.21 50.16,70.62 50.16,124.23zm-240.56 68.76l26 0c21.44,0 38.58,-6.04 51.15,-17.99 12.7,-12.08 18.98,-28.72 18.98,-49.92 0,-35.62 -19.71,-53.37 -59.27,-53.37l-36.85 0 0 121.27z"/>
  <path id="_1_0" class="fil0" d="M4159.15 1874.95c12.32,0 24.03,0.99 35,2.84l8 1.48 -12.69 133.23c-11.46,-2.84 -27.48,-4.32 -47.94,-4.32 -30.82,0 -53.12,7.02 -67.05,21.07 -14.05,14.18 -20.95,34.39 -20.95,60.88l0 201.13 -141.24 0 0 -408.91 105.12 0 22.06 65.19 6.77 0c11.83,-21.69 28.23,-39.19 49.3,-52.5 21.07,-13.43 42.27,-20.09 63.6,-20.09z"/>
  <path id="_2_1" class="fil0" d="M4649.76 2085.93c0,66.92 -18,119.05 -53.98,156.52 -35.87,37.47 -86.27,56.2 -150.97,56.2 -62.11,0 -111.53,-19.1 -148.13,-57.42 -36.72,-38.33 -55.09,-90.09 -55.09,-155.29 0,-66.8 18,-118.55 53.98,-155.53 35.99,-36.97 86.39,-55.46 151.34,-55.46 40.17,0 75.67,8.51 106.48,25.64 30.81,17.13 54.6,41.66 71.36,73.58 16.63,31.79 25.02,69.13 25.02,111.77zm-264.84 -0.25c0,35.12 4.68,62 14.04,80.35 9.37,18.37 25.15,27.61 47.33,27.61 21.82,0 37.22,-9.24 46.34,-27.61 9,-18.36 13.44,-45.23 13.44,-80.35 0,-34.88 -4.56,-61.24 -13.68,-78.99 -9.13,-17.87 -24.78,-26.74 -46.83,-26.74 -21.69,0 -37.22,8.87 -46.59,26.49 -9.36,17.75 -14.04,44.12 -14.04,79.24z"/>
  <path id="_3_2" class="fil0" d="M4719.89 2468.72c-11.46,0 -24.77,-0.87 -39.8,-2.71 -15.16,-1.85 -27.11,-3.94 -35.99,-6.28l0 -109.93c15.4,4.32 29.83,6.54 43.38,6.54 28.59,0 42.89,-20.46 42.89,-61.38l0 -412.6 141.24 0 0 442.06c0,44.98 -13.19,80.23 -39.56,105.87 -26.38,25.64 -63.71,38.45 -112.15,38.45zm6.91 -688.42c0,-21.2 5.92,-36.97 17.62,-47.33 11.83,-10.36 30.93,-15.53 57.06,-15.53 26.24,0 45.47,5.3 57.42,15.9 12.08,10.6 18.12,26.25 18.12,46.96 0,41.41 -25.14,62.11 -75.54,62.11 -49.79,0 -74.69,-20.7 -74.69,-62.11z"/>
  <path id="_4_3" class="fil0" d="M5167.62 2298.65c-68.15,0 -121.02,-18.12 -158.74,-54.35 -37.59,-36.23 -56.44,-87.87 -56.44,-154.79 0,-69.13 17.38,-122.13 52.38,-159.1 34.88,-36.97 84.67,-55.46 149.37,-55.46 61.62,0 109.19,16.02 142.83,48.19 33.52,32.16 50.29,78.5 50.29,138.88l0 62.85 -252.28 0c0.98,22.81 9.36,40.79 25.14,53.74 15.65,12.94 37.22,19.47 64.33,19.47 24.77,0 47.57,-2.34 68.4,-7.03 20.82,-4.68 43.38,-12.69 67.66,-24.03l0 101.67c-22.05,11.21 -44.98,19.1 -68.51,23.42 -23.54,4.31 -51.77,6.53 -84.42,6.53zm-8.38 -327.57c-16.51,0 -30.44,5.3 -41.66,15.78 -11.21,10.48 -17.74,26.86 -19.6,49.3l121.15 0c-0.49,-19.72 -6.04,-35.49 -16.76,-47.33 -10.73,-11.83 -25.02,-17.75 -43.14,-17.75z"/>
  <path id="_5" class="fil0" d="M5564.09 2061.41c17,-27.24 31.55,-48.43 43.63,-63.6l91.57 -115.47 157.5 0 -141.85 173.88 150.84 235.02 -161.44 0 -89.35 -146.53 -45.85 35 0 111.53 -141.97 0 0 -561.97 141.97 0 0 221.1c0,37.83 -2.71,74.8 -8.01,111.04l2.96 0z"/>
  <path id="_6" class="fil0" d="M6115.09 2186.99c18.99,0 41.78,-4.68 68.15,-14.04l0 102.9c-18.98,8.26 -37.1,14.05 -54.35,17.5 -17.13,3.57 -37.34,5.3 -60.39,5.3 -47.45,0 -81.58,-11.58 -102.53,-34.88 -20.96,-23.17 -31.43,-58.91 -31.43,-107.09l0 -168.6 -49.55 0 0 -57.42 62.85 -44.36 36.48 -85.9 92.43 0 0 81.95 100.44 0 0 105.73 -100.44 0 0 159.23c0,26.49 12.69,39.68 38.32,39.68z"/>
  <path class="fil1" d="M1983.19 1121.32c0,440.62 -357.2,797.83 -797.84,797.83 -440.65,0 -797.84,-357.21 -797.84,-797.83 0,-440.64 357.19,-797.85 797.84,-797.85 440.64,0 797.84,357.21 797.84,797.85z"/>
  <g id="_1305401315552">
   <path class="fil2" d="M901.57 1213.67c-0.16,5.43 -0.16,10.59 0.16,14.92 2.19,26.91 8.75,23.84 8.75,23.84l4.88 -23.25c-5.03,-5.64 -9.37,-10.56 -11.98,-13.64 -0.38,-0.48 -1.31,-1.31 -1.81,-1.87z"/>
   <path class="fil3" d="M1503.15 1149.24c0,-0.1 -0.04,-0.18 -0.07,-0.3 0.03,0.11 0.07,0.2 0.07,0.3z"/>
   <path class="fil4" d="M1503.15 1149.24c0,-0.1 -0.04,-0.18 -0.07,-0.3 0.03,0.11 0.07,0.2 0.07,0.3z"/>
   <path class="fil5" d="M1041.54 1525.76l3.6 20.96 8.7 36.93c0,0 7.07,2.94 9.39,-22.97 2.29,-25.92 -7.73,-78.35 -7.73,-78.35l-4.65 -45.54c-0.11,1.66 -0.24,2.95 -0.33,4.63 -2.41,30.55 -6.68,66.31 -8.98,84.34z"/>
   <path class="fil4" d="M1245.98 877.94c0.8,-26.22 12.8,-90.66 16.64,-110.22l-0.07 -0.28c-3.91,20.06 -15.99,84.87 -16.58,110.5z"/>
   <path class="fil4" d="M1350.31 754.9c-3.33,14.24 -5.81,42 -11.98,85.39 -6.15,43.36 -7.34,51.42 -11.85,85.45 -4.5,34.09 -6.5,61.01 -9.9,103.69 -3.35,42.7 -10.69,96.18 -10.69,96.18l-1.59 9.34 0.07 0 1.52 -8.74c0,0 7.34,-53.48 10.69,-96.18 3.4,-42.68 5.4,-69.6 9.9,-103.68 4.51,-34.05 5.7,-42.1 11.85,-85.45 6.17,-43.4 8.65,-71.15 11.98,-85.41 1.64,-6.99 3.62,-16.39 5.14,-24.89l-0.04 -0.3c-1.55,8.44 -3.52,17.67 -5.11,24.61z"/>
   <path class="fil5" d="M1350.31 754.9c-3.33,14.24 -5.81,42 -11.98,85.39 -6.15,43.36 -7.34,51.42 -11.85,85.45 -4.5,34.09 -6.5,61.01 -9.9,103.69 -3.35,42.7 -10.69,96.18 -10.69,96.18l-1.59 9.34 0.07 0 1.52 -8.74c0,0 7.34,-53.48 10.69,-96.18 3.4,-42.68 5.4,-69.6 9.9,-103.68 4.51,-34.05 5.7,-42.1 11.85,-85.45 6.17,-43.4 8.65,-71.15 11.98,-85.41 1.64,-6.99 3.62,-16.39 5.14,-24.89l-0.04 -0.3c-1.55,8.44 -3.52,17.67 -5.11,24.61z"/>
   <path class="fil4" d="M1306.6 906.82c0,0 7.19,41.48 7.63,69.92 -0.3,-28.46 -7.63,-70.53 -7.63,-70.53l-7.65 -82.18 -4.58 -62.04 0 0.16 4.58 62.47 7.65 82.2z"/>
   <path class="fil5" d="M1306.6 906.82c0,0 7.19,41.48 7.63,69.92 -0.3,-28.46 -7.63,-70.53 -7.63,-70.53l-7.65 -82.18 -4.58 -62.04 0 0.16 4.58 62.47 7.65 82.2z"/>
   <path class="fil4" d="M1276.29 1267.56l6.25 -24.93c0,-0.14 -0.04,-0.28 -0.09,-0.42l-6.16 24.75 -18.34 61.36 0.08 0.31 18.26 -61.07z"/>
   <path class="fil5" d="M1276.29 1267.56l6.25 -24.93c0,-0.14 -0.04,-0.28 -0.09,-0.42l-6.16 24.75 -18.34 61.36 0.08 0.31 18.26 -61.07z"/>
   <path class="fil4" d="M1205.82 847.52c0,0 -4.73,-36.12 -5.37,-56.86 0.58,20.62 5.37,57.47 5.37,57.47l9.04 85.05c0,0 17.14,86.56 17.76,116.87 -0.38,-29.71 -17.76,-117.48 -17.76,-117.48l-9.04 -85.05z"/>
   <path class="fil5" d="M1205.82 847.52c0,0 -4.73,-36.12 -5.37,-56.86 0.58,20.62 5.37,57.47 5.37,57.47l9.04 85.05c0,0 17.14,86.56 17.76,116.87 -0.38,-29.71 -17.76,-117.48 -17.76,-117.48l-9.04 -85.05z"/>
   <path class="fil4" d="M1172.66 1296.79c0,0 -7.29,-53.48 -10.68,-96.17 -3.4,-42.69 -5.41,-69.61 -9.89,-103.69 -4.51,-34.05 -5.71,-42.1 -11.85,-85.45 -6.18,-43.4 -8.65,-71.15 -11.98,-85.4 -3.19,-13.98 -8,-37.36 -7.31,-44.08 0,0.05 0,0.06 0,0.09 -0.97,6.18 4.04,30.38 7.31,44.59 3.33,14.27 5.8,42.01 11.98,85.4 6.14,43.34 7.34,51.41 11.85,85.44 4.48,34.1 6.49,61.01 9.89,103.69 3.39,42.7 10.68,96.18 10.68,96.18l2.79 15.64c0,-0.02 0.03,-0.02 0.08,-0.05l-2.87 -16.19z"/>
   <path class="fil5" d="M1172.66 1296.79c0,0 -7.29,-53.48 -10.68,-96.17 -3.4,-42.69 -5.41,-69.61 -9.89,-103.69 -4.51,-34.05 -5.71,-42.1 -11.85,-85.45 -6.18,-43.4 -8.65,-71.15 -11.98,-85.4 -3.19,-13.98 -8,-37.36 -7.31,-44.08 0,0.05 0,0.06 0,0.09 -0.97,6.18 4.04,30.38 7.31,44.59 3.33,14.27 5.8,42.01 11.98,85.4 6.14,43.34 7.34,51.41 11.85,85.44 4.48,34.1 6.49,61.01 9.89,103.69 3.39,42.7 10.68,96.18 10.68,96.18l2.79 15.64c0,-0.02 0.03,-0.02 0.08,-0.05l-2.87 -16.19z"/>
   <path class="fil4" d="M1549.7 1210.47c0,0 0,0 -0.05,0l0.39 1.86 -0.34 -1.86z"/>
   <path class="fil6" d="M1549.7 1210.47c0,0 0,0 -0.05,0l0.39 1.86 -0.34 -1.86z"/>
   <path class="fil3" d="M1565.56 1397.7c-8.06,9.03 -18.8,21.08 -29.62,34.23 10.72,-13.04 21.65,-25.24 29.62,-34.23z"/>
   <path class="fil3" d="M1565.56 1397.7c-8.06,9.03 -18.8,21.08 -29.62,34.23 10.72,-13.04 21.65,-25.24 29.62,-34.23z"/>
   <path class="fil4" d="M1565.56 1397.7c-8.06,9.03 -18.8,21.08 -29.62,34.23 10.72,-13.04 21.65,-25.24 29.62,-34.23z"/>
   <path class="fil3" d="M1565.56 1397.7c-8.06,9.03 -18.8,21.08 -29.62,34.23 10.72,-13.04 21.65,-25.24 29.62,-34.23z"/>
   <path class="fil4" d="M1565.56 1397.7c-8.06,9.03 -18.8,21.08 -29.62,34.23 10.72,-13.04 21.65,-25.24 29.62,-34.23z"/>
   <path class="fil6" d="M1565.56 1397.7c-8.06,9.03 -18.8,21.08 -29.62,34.23 10.72,-13.04 21.65,-25.24 29.62,-34.23z"/>
   <polygon class="fil3" points="1248.88,1404.44 1248.6,1549.57 1248.6,1549.9 1248.88,1405.05 1255.77,1336.13 1258.03,1328.63 1257.96,1328.32 1255.77,1335.52 "/>
   <polygon class="fil4" points="1248.88,1404.44 1248.6,1549.57 1248.6,1549.9 1248.88,1405.05 1255.77,1336.13 1258.03,1328.63 1257.96,1328.32 1255.77,1335.52 "/>
   <polygon class="fil5" points="1248.88,1404.44 1248.6,1549.57 1248.6,1549.9 1248.88,1405.05 1255.77,1336.13 1258.03,1328.63 1257.96,1328.32 1255.77,1335.52 "/>
   <polygon class="fil6" points="1248.88,1404.44 1248.6,1549.57 1248.6,1549.9 1248.88,1405.05 1255.77,1336.13 1258.03,1328.63 1257.96,1328.32 1255.77,1335.52 "/>
   <path class="fil3" d="M1291.96 1205.1l12.4 -70.15 -0.07 0 -12.34 69.56 -9.51 37.7c0.05,0.14 0.09,0.28 0.09,0.42l9.42 -37.52z"/>
   <path class="fil4" d="M1291.96 1205.1l12.4 -70.15 -0.07 0 -12.34 69.56 -9.51 37.7c0.05,0.14 0.09,0.28 0.09,0.42l9.42 -37.52z"/>
   <path class="fil5" d="M1291.96 1205.1l12.4 -70.15 -0.07 0 -12.34 69.56 -9.51 37.7c0.05,0.14 0.09,0.28 0.09,0.42l9.42 -37.52z"/>
   <path class="fil6" d="M1291.96 1205.1l12.4 -70.15 -0.07 0 -12.34 69.56 -9.51 37.7c0.05,0.14 0.09,0.28 0.09,0.42l9.42 -37.52z"/>
   <path class="fil7" d="M818.17 1771.21c-1.99,-24.59 -15.24,-77.26 -25.54,-113.83 -3.04,-10.84 -5.91,-20.41 -8.05,-27.22 -5.72,-18.04 -29.2,-45.21 -49.9,-67.3 -13.45,-14.31 -25.82,-26.55 -31.31,-32.62 -14.12,-15.4 -92.67,-73.02 -102.14,-80.24 -4.66,-3.53 -13.75,-10.03 -24.83,-17.8 -35.32,-24.77 -91.42,-63 -91.42,-63 -7.18,-3.45 -18.56,-18.79 -20.65,-34 -2.34,-16.88 1.87,-18.07 5.92,-26.06 4.07,-8.03 4.27,-5.61 12.94,-12.45 8.65,-6.84 24.6,-2.54 39.45,0.8 14.85,3.32 23.93,8.14 51.28,21.91 0.7,0.35 1.2,0.61 1.94,0.97 25.92,13.05 39.61,19.81 71.33,34.98 32.56,15.59 45.42,13.58 87.5,4.32 42.05,-9.26 54.76,-100.26 54.76,-100.26l2.47 -58.35 1.5 -16.27 3.37 -37.29 6.21 -93.32 10.92 -95.95 8.32 -42.1 10.57 -14.08c0,0 3.39,-3.08 8.25,-5.48 3.77,-1.84 8.34,-3.35 13.37,-2.4 4.99,0.94 9,2.88 12.17,4.77 0.05,0.03 0.07,0.03 0.07,0.05 4.11,2.43 6.61,4.76 6.61,4.76 0,0 8.67,6.54 9.66,25.53 0.7,13.16 -2.6,52.62 -2.6,52.62l-2.49 47.88c0,0 -3.14,74.79 -4.77,101.43 -1.55,26.6 11.22,30.98 11.22,30.98 0,0 5.21,-3.26 11.35,-9.86 6.18,-6.58 8.75,-53.4 11.34,-71.15 2.59,-17.77 11.16,-78.01 14.13,-98.66 2.96,-20.67 10.07,-68.01 10.07,-68.01l7.72 -31.6 11.29 -14.74 18.68 -6.8 4.83 1.15 12.38 2.97c0,0 10.25,11.19 14.35,23.16 4.05,11.98 0,29.21 0,29.21l-5.76 71.29 -3.4 33.62 -4.65 45.54c0,0 -10.01,52.42 -7.72,78.35 2.31,25.9 9.38,22.96 9.38,22.96l8.7 -36.93 3.59 -20.96 11.6 -68.28 13.29 -77.75 10.15 -42.03c0,0 2.14,-26.24 10.62,-32.68 1.68,-1.28 5.48,-5.13 8.55,-6.95 0.5,-0.32 1.15,-0.96 1.57,-1.11 1,-0.32 2.76,-0.28 4.3,-0.42 4.14,-0.42 8.71,-0.2 11.82,1.06 0.32,0.14 1.01,0.11 1.27,0.26 5.4,3.03 14.02,11.39 14.02,11.39 3.89,3.93 6.18,18.18 7.77,24.44 1.61,6.26 2.07,13.08 2.95,29.87 0.9,16.81 -5.7,62.29 -5.7,62.29l-9.48 81.85c0,0 -27.5,126.81 -15.95,122.37 11.62,-4.42 28.71,-42.16 28.71,-42.16l8.1 -28.98 8.35 -39.24 8.82 -33.64 6.88 -25.75 9.76 -14.5 11.99 -6.12 12.33 0 12.48 4.3c0,0 6.53,8.56 7.56,14.53 1.01,5.99 -4.28,29.25 -7.72,42.95 -3.51,13.68 -6.19,40.42 -12.64,82.18 -6.48,41.74 -7.74,49.5 -12.49,82.27 -4.73,32.79 -6.87,58.72 -10.41,99.82 -3.55,41.11 -11.25,92.58 -11.25,92.58l-14.74 75.96 -16.57 60.08 -21.57 66.01 -7.3 66.33 -0.33 560.16c-83.26,3.41 -165.16,12.08 -245.34,25.75 -0.09,-123.82 -0.64,-488.04 -3.79,-527.38z"/>
   <path class="fil8" d="M1476.77 1953.35c1.99,-24.59 15.23,-77.27 25.53,-113.83 3.03,-10.83 5.92,-20.42 8.06,-27.23 5.72,-18.04 29.19,-45.21 49.9,-67.3 13.44,-14.31 25.81,-26.54 31.3,-32.62 14.13,-15.4 92.68,-73.02 102.15,-80.24 4.65,-3.53 13.74,-10.03 24.82,-17.8 35.32,-24.77 91.43,-62.99 91.43,-62.99 7.17,-3.45 18.55,-18.8 20.65,-34.01 2.33,-16.88 -1.87,-18.07 -5.92,-26.05 -4.08,-8.02 -4.28,-5.61 -12.94,-12.46 -8.67,-6.84 -24.61,-2.54 -39.46,0.8 -14.85,3.32 -23.93,8.14 -51.27,21.91 -0.71,0.36 -1.2,0.62 -1.95,0.98 -25.92,13.04 -39.61,19.81 -71.32,34.97 -32.56,15.59 -45.43,13.59 -87.5,4.32 -42.05,-9.26 -54.76,-100.25 -54.76,-100.25l-2.48 -58.35 -1.49 -16.28 -3.37 -37.29 -6.22 -93.31 -10.91 -95.96 -8.32 -42.09 -10.57 -14.08c0,0 -3.4,-3.08 -8.25,-5.48 -3.78,-1.84 -8.35,-3.35 -13.37,-2.4 -5,0.94 -9,2.87 -12.17,4.76 -0.05,0.04 -0.08,0.04 -0.08,0.06 -4.1,2.43 -6.61,4.75 -6.61,4.75 0,0 -8.67,6.54 -9.65,25.53 -0.7,13.16 2.59,52.63 2.59,52.63l2.5 47.87c0,0 3.13,74.8 4.76,101.44 1.55,26.59 -11.22,30.97 -11.22,30.97 0,0 -5.2,-3.25 -11.34,-9.85 -6.18,-6.59 -8.75,-53.41 -11.35,-71.15 -2.58,-17.77 -11.15,-78.02 -14.12,-98.67 -2.98,-20.66 -10.08,-68 -10.08,-68l-7.71 -31.61 -11.31 -14.74 -18.66 -6.8 -4.84 1.15 -12.37 2.97c0,0 -10.27,11.19 -14.35,23.16 -4.06,11.98 0,29.22 0,29.22l5.76 71.29 3.39 33.62 4.65 45.53c0,0 10.01,52.42 7.73,78.35 -2.32,25.91 -9.39,22.97 -9.39,22.97l-8.7 -36.93 -3.6 -20.96 -11.58 -68.29 -13.31 -77.75 -10.13 -42.03c0,0 -2.14,-26.24 -10.63,-32.68 -1.67,-1.29 -5.48,-5.14 -8.55,-6.95 -0.49,-0.33 -1.14,-0.96 -1.56,-1.11 -1.02,-0.32 -2.76,-0.28 -4.31,-0.42 -4.14,-0.42 -8.71,-0.19 -11.82,1.06 -0.31,0.14 -1,0.11 -1.27,0.26 -5.4,3.04 -14.01,11.39 -14.01,11.39 -3.9,3.94 -6.18,18.18 -7.77,24.44 -1.61,6.27 -2.08,13.09 -2.95,29.87 -0.9,16.81 5.69,62.29 5.69,62.29l9.48 81.86c0,0 27.5,126.81 15.94,122.37 -11.61,-4.42 -28.69,-42.16 -28.69,-42.16l-8.11 -28.98 -8.34 -39.24 -8.82 -33.65 -6.89 -25.74 -9.76 -14.51 -11.98 -6.11 -12.33 0 -12.49 4.3c0,0 -6.52,8.56 -7.55,14.52 -1.02,5.99 4.28,29.26 7.71,42.95 3.52,13.69 6.19,40.42 12.65,82.19 6.47,41.74 7.74,49.5 12.48,82.27 4.73,32.79 6.87,58.72 10.41,99.82 3.56,41.1 11.25,92.58 11.25,92.58l14.74 75.96 16.57 60.08 21.56 66 7.31 66.33 0.28 378.03c82.95,3.4 164.53,12.02 244.44,25.6l0.94 -275.67c0,0 0,-21.93 3.82,-69.42z"/>
   <path class="fil9" d="M1245.5 2162.67c1.82,-22.46 13.92,-70.59 23.32,-103.99 2.78,-9.9 5.41,-18.65 7.36,-24.87 5.22,-16.47 26.67,-41.31 45.59,-61.47 12.28,-13.07 23.57,-24.25 28.6,-29.79 12.89,-14.09 84.66,-66.71 93.31,-73.3 4.25,-3.24 12.56,-9.17 22.67,-16.25 32.27,-22.64 83.52,-57.56 83.52,-57.56 6.55,-3.13 16.96,-17.17 18.87,-31.06 2.13,-15.42 -1.7,-16.51 -5.41,-23.82 -3.72,-7.34 -3.89,-5.12 -11.8,-11.36 -7.91,-6.26 -22.47,-2.33 -36.05,0.71 -13.57,3.04 -21.85,7.45 -46.84,20.02 -0.66,0.33 -1.1,0.56 -1.78,0.9 -23.67,11.91 -36.19,18.1 -65.16,31.95 -29.74,14.23 -41.51,12.4 -79.93,3.94 -38.42,-8.46 -50.03,-91.59 -50.03,-91.59l-2.27 -53.3 -1.35 -14.87 -3.08 -34.06 -5.67 -85.25 -9.98 -87.65 -7.6 -38.46 -9.66 -12.86c0,0 -3.1,-2.81 -7.52,-5 -3.47,-1.69 -7.63,-3.08 -12.21,-2.2 -4.58,0.87 -8.23,2.63 -11.11,4.36 -0.06,0.03 -0.09,0.03 -0.09,0.04 -3.73,2.23 -6.03,4.36 -6.03,4.36 0,0 -7.91,5.95 -8.81,23.31 -0.66,12.02 2.36,48.08 2.36,48.08l2.28 43.73c0,0 2.87,68.34 4.34,92.67 1.43,24.3 -10.24,28.29 -10.24,28.29 0,0 -4.75,-2.97 -10.36,-9.01 -5.64,-6.02 -7.97,-48.77 -10.36,-65 -2.36,-16.21 -10.18,-71.26 -12.9,-90.13 -2.71,-18.89 -9.2,-62.12 -9.2,-62.12l-7.05 -28.88 -10.32 -13.44 -17.06 -6.22 -4.42 1.05 -11.3 2.72c0,0 -9.37,10.22 -13.11,21.16 -3.71,10.95 0,26.68 0,26.68l5.26 65.11 3.11 30.71 4.25 41.58c0,0 9.15,47.9 7.06,71.58 -2.12,23.67 -8.57,20.99 -8.57,20.99l-7.95 -33.74 -3.28 -19.15 -10.58 -62.37 -12.16 -71.03 -9.27 -38.4c0,0 -1.95,-23.99 -9.71,-29.85 -1.53,-1.18 -5,-4.71 -7.8,-6.36 -0.45,-0.3 -1.05,-0.89 -1.44,-1.03 -0.91,-0.3 -2.52,-0.23 -3.92,-0.36 -3.79,-0.39 -7.95,-0.19 -10.8,0.95 -0.3,0.14 -0.91,0.11 -1.16,0.24 -4.93,2.76 -12.8,10.4 -12.8,10.4 -3.55,3.6 -5.64,16.6 -7.1,22.33 -1.47,5.73 -1.89,11.97 -2.7,27.3 -0.82,15.36 5.19,56.9 5.19,56.9l8.67 74.78c0,0 25.11,115.84 14.57,111.78 -10.61,-4.03 -26.23,-38.51 -26.23,-38.51l-7.4 -26.46 -7.62 -35.85 -8.06 -30.73 -6.29 -23.52 -8.92 -13.25 -10.96 -5.58 -11.26 0 -11.41 3.93c0,0 -5.95,7.82 -6.91,13.26 -0.92,5.47 3.92,26.73 7.06,39.23 3.2,12.51 5.65,36.93 11.55,75.09 5.92,38.13 7.07,45.21 11.4,75.15 4.32,29.96 6.28,53.64 9.53,91.19 3.24,37.53 10.28,84.57 10.28,84.57l13.45 69.4 15.14 54.88 19.7 60.29 6.68 60.61 0.22 166.3c42.86,-2.86 86.06,-4.45 129.63,-4.45 31.82,0 63.44,0.82 94.87,2.34 0.39,-39.08 1.26,-87.18 3.15,-110.73z"/>
  </g>
  <rect class="fil10" x="-0" y="-0" width="6517.52" height="2644.55"/>
 </g>
</svg>
