<svg width="90" height="90" viewBox="0 0 90 90" fill="none" xmlns="http://www.w3.org/2000/svg">
<path d="M59.64 49.3517L51.6851 57.3066L74.1709 79.7924L82.1257 71.8375L59.64 49.3517Z" fill="white"/>
<path d="M65.625 37.9121C72.8625 37.9121 78.75 32.0246 78.75 24.7871C78.75 22.6121 78.15 20.5871 77.2125 18.7871L67.0875 28.9121L61.5 23.3246L71.625 13.1996C69.825 12.2621 67.8 11.6621 65.625 11.6621C58.3875 11.6621 52.5 17.5496 52.5 24.7871C52.5 26.3246 52.8 27.7871 53.2875 29.1371L46.35 36.0746L39.675 29.3996L42.3375 26.7371L37.05 21.4496L45 13.4996C40.6125 9.11211 33.4875 9.11211 29.1 13.4996L15.825 26.7746L21.1125 32.0621H10.5375L7.875 34.7246L21.15 47.9996L23.8125 45.3371V34.7246L29.1 40.0121L31.7625 37.3496L38.4375 44.0246L10.65 71.8121L18.6 79.7621L61.275 37.1246C62.625 37.6121 64.0875 37.9121 65.625 37.9121Z" fill="white"/>
</svg>
