<svg width="90" height="82" viewBox="0 0 90 82" fill="none" xmlns="http://www.w3.org/2000/svg">
<path d="M33.8906 0.664062V35.0304C33.8906 50.4999 46.4757 63.085 61.945 63.085C77.4145 63.085 89.9996 50.4999 89.9996 35.0304V0.664062H33.8906ZM55.5011 20.1433C55.5011 23.7774 52.5444 26.7341 48.9103 26.7341C45.2763 26.7341 42.3196 23.7774 42.3196 20.1433C42.3196 16.509 45.2763 13.5526 48.9103 13.5526C52.5444 13.5526 55.5011 16.509 55.5011 20.1433ZM68.3894 20.1433C68.3894 16.509 71.3461 13.5526 74.9801 13.5526C78.6142 13.5526 81.5709 16.5093 81.5709 20.1433C81.5709 23.7774 78.6142 26.7341 74.9801 26.7341C71.3461 26.7341 68.3894 23.7774 68.3894 20.1433ZM54.0217 38.3188C54.95 40.5081 58.2558 42.2294 61.9452 42.2294C65.6347 42.2294 68.9408 40.5081 69.8691 38.3188H78.0244C77.6546 41.5334 75.8469 44.5462 72.9382 46.7276C69.9557 48.9646 66.0517 50.1968 61.9452 50.1968C57.8393 50.1968 53.9351 48.9649 50.9525 46.7276C48.0435 44.5459 46.2359 41.5334 45.8661 38.3188H54.0217Z" fill="white"/>
<path d="M43.5876 66.0124L43.297 65.8395H35.978C35.0499 63.6502 31.7438 61.9289 28.0546 61.9289C24.3652 61.9289 21.0591 63.6502 20.1308 65.8395H11.9757C12.3455 62.6249 14.1532 59.6121 17.0619 57.4307C20.0449 55.1934 23.9489 53.9615 28.0549 53.9615C28.373 53.9615 28.7138 53.9716 29.1266 53.9932L31.3221 54.1086L30.272 52.1772C27.427 46.9436 25.9231 41.0144 25.9231 35.0311V18.9141H0V53.2804C0 68.7499 12.5851 81.335 28.0546 81.335C36.6066 81.335 44.5966 77.4719 49.9768 70.7362L51.038 69.4071L49.4437 68.8151C47.4232 68.0649 45.4531 67.1221 43.5876 66.0124ZM15.0197 31.8023C18.654 31.8023 21.6105 34.759 21.6105 38.3931C21.6105 42.0274 18.6538 44.9838 15.0197 44.9838C11.3857 44.9838 8.4292 42.0271 8.4292 38.3931C8.4292 34.759 11.3857 31.8023 15.0197 31.8023Z" fill="white"/>
</svg>
