<svg width="148" height="104" viewBox="0 0 148 104" fill="none" xmlns="http://www.w3.org/2000/svg">
<path d="M51.9974 64.8327C34.8374 64.8327 0.664062 73.4127 0.664062 90.4993V103.333H103.331V90.4993C103.331 73.4127 69.1574 64.8327 51.9974 64.8327ZM17.8241 88.666C23.9841 84.4127 38.8707 79.4993 51.9974 79.4993C65.1241 79.4993 80.0107 84.4127 86.1707 88.666H17.8241ZM51.9974 51.9993C66.1507 51.9993 77.6641 40.486 77.6641 26.3327C77.6641 12.1793 66.1507 0.666016 51.9974 0.666016C37.8441 0.666016 26.3307 12.1793 26.3307 26.3327C26.3307 40.486 37.8441 51.9993 51.9974 51.9993ZM51.9974 15.3327C58.0841 15.3327 62.9974 20.246 62.9974 26.3327C62.9974 32.4193 58.0841 37.3327 51.9974 37.3327C45.9107 37.3327 40.9974 32.4193 40.9974 26.3327C40.9974 20.246 45.9107 15.3327 51.9974 15.3327ZM103.624 65.2727C112.131 71.4327 117.997 79.646 117.997 90.4993V103.333H147.331V90.4993C147.331 75.686 121.664 67.2527 103.624 65.2727ZM95.9974 51.9993C110.151 51.9993 121.664 40.486 121.664 26.3327C121.664 12.1793 110.151 0.666016 95.9974 0.666016C92.0374 0.666016 88.3707 1.61935 84.9974 3.23268C89.6174 9.75935 92.3307 17.7527 92.3307 26.3327C92.3307 34.9127 89.6174 42.906 84.9974 49.4327C88.3707 51.046 92.0374 51.9993 95.9974 51.9993Z" fill="white"/>
</svg>
